<?xml version="1.0" encoding="UTF-8"?> <svg xmlns="http://www.w3.org/2000/svg" viewBox="0 0 383.23 322.49"><g id="Layer_2" data-name="Layer 2"><g id="Layer_1-2" data-name="Layer 1"><path d="M0,314.21c2.26-2.94,5.32-3.58,8.86-3.5,6.85.16,13.72,0,20.58.05,3.82,0,3.47-.06,3.47-3.48q0-32.25,0-64.49c0-5,0-10,0-15,0-5.22,2-7.22,7.29-7.23q25.07,0,50.14,0c5.69,0,7.65,2,7.65,7.68q0,38.25,0,76.49c0,6,0,6,6.17,6,3.62,0,7.23,0,10.85,0,2.39,0,2.39-.1,2.47-2.58,0-.87,0-1.75,0-2.62V196.43c0-1,0-2,0-3,.1-4.81,2-6.79,6.88-6.8q25.44,0,50.89,0c4.89,0,6.83,1.9,6.85,6.79.05,13.63,0,27.25,0,40.87v70.87c0,.75,0,1.5,0,2.25,0,3.29.06,3.32,3.31,3.34,4.62,0,9.24,0,13.85,0,1.77,0,2.5-.68,2.39-2.43-.07-1,0-2,0-3q0-50.05,0-100.11a39.61,39.61,0,0,1,.13-4.49c.36-3.26,2-4.94,5.2-5.41a23.49,23.49,0,0,1,3.36-.13h47.9a22.93,22.93,0,0,1,3,.09c3.4.43,5.12,2.22,5.41,5.6.1,1.24.06,2.5.06,3.75v102c0,4.12,0,4.13,4,4.14,4.24,0,8.49,0,12.73,0,2.72,0,2.75-.1,2.85-2.67,0-1,0-2,0-3V146.85c0-1.24-.05-2.5.05-3.74.29-3.69,2.27-5.59,6-5.83.5,0,1,0,1.5,0h49.39a17.57,17.57,0,0,1,2.62.08,5.66,5.66,0,0,1,5.05,5.22,31.22,31.22,0,0,1,.07,3.75q0,79.86,0,159.72c0,5.28-.74,4.68,4.84,4.71,6.23,0,12.47,0,18.71,0a29,29,0,0,1,3.36.11c3.37.39,5.17,2.22,5.25,5.23a5.86,5.86,0,0,1-5.21,6.26,18.92,18.92,0,0,1-2.61.07q-183.73,0-367.48.06c-3.44,0-6-1-7.92-3.78Zm297.91-84.76q0,39,0,78c0,3.28,0,3.32,3.23,3.32q16.65,0,33.3,0c5.5,0,5.07.69,5.07-4.95q0-75.92,0-151.83c0-.75,0-1.5,0-2.25-.1-2.65-.1-2.73-2.76-2.74q-18.15,0-36.29,0c-2.45,0-2.46.08-2.55,2.48,0,.88,0,1.75,0,2.63ZM170.65,254.58V201.71c0-3.91.21-3.62-3.68-3.62H132.54c-3.49,0-3.53,0-3.53,3.48q0,52.86,0,105.73c0,3.42.05,3.45,3.58,3.45q17.22,0,34.43,0c.62,0,1.25,0,1.87,0,1.26,0,1.81-.55,1.76-1.8,0-.87,0-1.75,0-2.62Zm84.19,4.1q0-24.17,0-48.34c0-3.41,0-3.43-3.51-3.44q-17.4,0-34.79,0c-3.46,0-3.21-.14-3.21,3.29V306.5c0,.87,0,1.75,0,2.62,0,1.06.44,1.63,1.55,1.61.62,0,1.24,0,1.87,0q17.2,0,34.41,0c3.64,0,3.64,0,3.68-3.72V258.68ZM44.41,271.08c0,12.24,0,24.48,0,36.73,0,2.86.08,2.93,2.95,2.94q18,0,35.91,0c2.72,0,2.77-.07,2.77-3q0-36.16,0-72.33c0-3,0-3.09-3.06-3.1H47.46c-.38,0-.75,0-1.12,0-1.48-.09-2,.7-1.93,2.07,0,.87,0,1.75,0,2.62Z"></path><path d="M266.08,52.43C266.59,22.36,290.13-.55,320,0c29,.55,51.86,24.41,51.28,53.84a52.58,52.58,0,0,1-105.15-1.42Zm93.62-.07C359,29,340.42,11.27,317.63,11.66c-20.53.34-40.55,17.11-40.28,41.28a41.18,41.18,0,0,0,82.35-.58Z"></path><path d="M226.34,170.12c-.48-.16-1.79-.52-3.05-1-23.34-9.68-46.71-19.31-70-29.13-2.88-1.22-4.85-1-7.39.8Q109.49,167,72.92,193a21.17,21.17,0,0,1-2.8,1.85,5.3,5.3,0,0,1-7-1.56,5.77,5.77,0,0,1,.27-7.25A15.29,15.29,0,0,1,66,184q38.77-27.76,77.53-55.56c3.06-2.2,5.76-2.65,9.31-1.14,23.17,9.78,46.43,19.33,69.59,29.13,2.93,1.24,4.84.94,7.29-1,17.66-14.26,35.44-28.38,53.2-42.52A16.58,16.58,0,0,1,286,110.7a5.82,5.82,0,0,1,7.1,1.56,6.21,6.21,0,0,1-.25,7.63,14,14,0,0,1-1.95,1.72l-58,46.11C231.2,169.05,229.54,170.39,226.34,170.12Z"></path><path d="M318,18.58h.75c4.26,0,3.8-.07,3.82,3.88,0,2.76.06,2.76,2.68,3.39,5.74,1.39,5.74,1.39,5,7.09-.08.62-.11,1.24-.19,1.86-.15,1.09-.73,1.49-1.82,1.19-1.56-.42-3.13-.86-4.72-1.14a19.12,19.12,0,0,0-4.06-.37c-3.24.1-5.15,1.6-5.76,4.31-.76,3.36.13,5.51,3.26,7.11,3.32,1.69,6.83,3,10.1,4.79,5.34,2.87,8.5,7.34,8.36,13.56s-2.86,11.1-8.61,13.77c-2.49,1.15-3.86,2.49-3.27,5.3a2.41,2.41,0,0,1,0,.38c0,3.23-.05,3.26-3.25,3.25-1.59,0-3.71.41-4.64-.42s-.65-3-.62-4.53c0-1.82-.79-2.23-2.42-2.5-3.3-.55-6.56-1.36-9.8-2.2a2,2,0,0,1-1.09-1.54c.14-2.48.45-5,.83-7.43,0-.28.93-.72,1.29-.61a41.07,41.07,0,0,1,4.91,1.77c3.09,1.36,6.34,1.32,9.55,1,4.16-.44,6.63-3.82,5.82-7.51a6,6,0,0,0-3.52-4.11c-2.9-1.44-5.87-2.71-8.8-4.08A16.85,16.85,0,0,1,305.08,49c-5.67-7.9-.67-19.88,6.16-22.33,1.94-.69,2.87-1.78,2.52-3.87-.1-.6,0-1.25,0-1.87-.2-1.82.62-2.51,2.37-2.35C316.72,18.63,317.35,18.58,318,18.58Z"></path></g></g></svg> 