<?xml version="1.0" encoding="UTF-8"?> <svg xmlns="http://www.w3.org/2000/svg" viewBox="0 0 359.44 359.55"><g id="Layer_2" data-name="Layer 2"><g id="Layer_1-2" data-name="Layer 1"><path d="M137.79,347.42v-83.6h11.66V359.4c-8.51-.37-17.12,1.09-25.54-1.06a29.51,29.51,0,0,1-22-28q-.29-31.25.06-62.49c0-4.18,1.23-8.35,1.93-12.51.18-1.08.51-2.12.91-3.75h-4.72c-15,0-29.94,0-44.91,0-25,.07-43.13,18.34-43.17,43.32,0,7.86-.12,15.72.05,23.58a30,30,0,0,0,21.77,27.8,15.43,15.43,0,0,0,2.07.25V281.84H47.81v65.42H101.6V359.4h-3c-18.84,0-37.67.07-56.51,0A41.54,41.54,0,0,1,1.28,327.24a44.41,44.41,0,0,1-1.17-9.62C0,309.51,0,301.4.07,293.3a53.75,53.75,0,0,1,52.16-53.54c16.83-.45,33.68-.11,50.52-.07,2.6,0,5.54,1.1,7.7.2,2-.83,3.09-3.74,4.73-5.6,10.35-11.76,23.41-18.15,39-18.49q25.24-.56,50.52,0c17.36.4,31.44,7.81,42,21.65.68.89,1.32,1.8,1.61,2.19H266c13.1,0,26.2-.11,39.3,0,24.9.25,45.74,16.17,52.14,39.94a57.3,57.3,0,0,1,1.86,12.9c.28,8.59.2,17.21.06,25.82a41.72,41.72,0,0,1-41.17,41c-19.34.18-38.67,0-58,0-.72,0-1.44-.08-2.37-.14V347.56H311.3V281.85h12v65c1.76-.49,3.07-.77,4.32-1.22a30,30,0,0,0,19.71-27.82c.1-8.11.08-16.22,0-24.33-.22-22.54-17.65-41-40.13-41.73-16.7-.53-33.43-.12-50.14-.11a16.42,16.42,0,0,0-2.39.35c.52,2.17,1.15,4.18,1.46,6.23a79,79,0,0,1,1.32,11.11q.19,30.12,0,60.25c-.09,14.77-10.37,26.74-24.91,29.42a15.22,15.22,0,0,1-2.6.29c-6.6,0-13.2,0-20.08,0v-95.5h11.54v83.05c12,2.39,21.6-3.42,23.76-14a22.18,22.18,0,0,0,.34-4.46c0-19.47.07-38.93,0-58.39-.1-23.59-18.32-42-41.91-42.31q-23.76-.27-47.53,0C132,228,114,246.2,113.85,270.36c-.09,19.47,0,38.93,0,58.39,0,11,7.55,18.53,18.55,18.66C134,347.43,135.61,347.42,137.79,347.42Z"></path><path d="M323.55,197.52V186.13c4.94-1.9,5.85-3.18,5.85-8.31q0-15.91,0-31.81c0-6.26-2-8.17-8.35-8.18q-12.92,0-25.83,0h-4.16a116.84,116.84,0,0,0-15.7-37.49c.82-.92,1.51-1.76,2.28-2.53q9.63-9.69,19.29-19.35c4.12-4.15,4.1-6.91-.06-11.1q-11.36-11.41-22.74-22.78c-4-3.95-6.95-4-10.88-.08-6.38,6.32-12.71,12.69-19.07,19-.87.86-1.79,1.69-2.83,2.68a116.86,116.86,0,0,0-37.71-15.67V46.62c0-9,0-18,0-26.94,0-5.4-2.11-7.57-7.43-7.59q-16.46-.08-32.93,0c-5.38,0-7.51,2.15-7.53,7.47,0,9,0,18,0,26.94v4a120.36,120.36,0,0,0-38.57,16.29A18.31,18.31,0,0,0,115,63.29q-9.3-9.48-18.78-18.8c-3.93-3.88-7-3.86-10.89.06q-11.53,11.48-23,23c-3.94,4-3.91,6.78.12,10.82,7.13,7.15,14.3,14.25,21.75,21.67a118.32,118.32,0,0,0-15.74,37.77h-4.1q-13.09,0-26.19,0c-6.15,0-8.12,2-8.13,8q0,16.08,0,32.18c0,4.94,1,6.32,5.8,7.95v11.39c-8.9.63-17.41-6.89-17.65-16.21-.35-12.84-.33-25.71,0-38.55.23-9.41,8.31-16.57,18.2-16.73,7.36-.12,14.72-.07,22.08-.1a3.29,3.29,0,0,0,.65-.26c1.45-3.83,2.86-7.92,4.54-11.9S67.12,106,69,101.88c-5.3-5.28-10.63-10.52-15.89-15.82-4.83-4.86-6.78-10.63-5.19-17.43a17.84,17.84,0,0,1,5-8.64c8.2-8.22,16.34-16.48,24.63-24.6,7.82-7.67,18.61-7.68,26.44-.06,5.27,5.13,10.35,10.45,15.47,15.64l24.34-10.14c0-6.38,0-13.08,0-19.79a34.93,34.93,0,0,1,.27-6A17.71,17.71,0,0,1,161.28.18q18.33-.34,36.67,0c10.1.19,17.52,8,17.66,18.08.1,7.36,0,14.72.06,22.08a1.72,1.72,0,0,0,.16.57l23.87,9.94c.48-.44,1.33-1.13,2.11-1.9,4.51-4.49,9-9,13.51-13.48,7.83-7.66,18.61-7.82,26.44-.2q12.62,12.27,24.87,24.89c7.31,7.53,7.23,17.85,0,25.51-2.65,2.82-5.43,5.51-8.18,8.22s-5.36,5.2-7.92,7.68l10.19,24.29c7.09,0,14.44,0,21.79,0a18.31,18.31,0,0,1,13.54,5.32,16.82,16.82,0,0,1,5.27,12c.1,12.48.21,24.95,0,37.42A17.39,17.39,0,0,1,323.55,197.52Z"></path><path d="M263.73,161.63h-12c-.89-23.45-10.06-42.76-28.74-57.09A69.26,69.26,0,0,0,176.86,90c-36.82,1.47-68.24,30.88-69.27,71.5H95.75c1.07-29.24,12.77-52.88,37.07-69,28.32-18.76,58.43-20.1,88.1-3.49C248.7,104.61,262.16,129.53,263.73,161.63Z"></path><path d="M179.54,209.67A35.91,35.91,0,1,1,215.62,174,35.89,35.89,0,0,1,179.54,209.67Zm0-12a23.94,23.94,0,1,0,.11-47.87,24.1,24.1,0,0,0-23.9,23.75A23.85,23.85,0,0,0,179.55,197.69Z"></path><path d="M77.65,233.62A35.91,35.91,0,1,1,113.82,198,35.87,35.87,0,0,1,77.65,233.62Zm.22-12a23.94,23.94,0,1,0-23.91-24A23.87,23.87,0,0,0,77.87,221.65Z"></path><path d="M281.34,233.62a35.91,35.91,0,1,1,36.08-35.71A35.88,35.88,0,0,1,281.34,233.62Zm.12-12a23.94,23.94,0,1,0-23.9-24A23.88,23.88,0,0,0,281.46,221.65Z"></path><path d="M203.46,347.68v11.53H156.05V347.68Z"></path></g></g></svg> 