<?xml version="1.0" encoding="UTF-8"?> <svg xmlns="http://www.w3.org/2000/svg" viewBox="0 0 360.72 360.82"><g id="Layer_2" data-name="Layer 2"><g id="Layer_1-2" data-name="Layer 1"><path d="M87.65,298.15c-1.23-.16-2.33-.25-3.41-.46-10.68-2-16.95-12-13.91-22.44a6.07,6.07,0,0,0-.64-5.55c-1.77-2.71-3.1-5.7-4.92-8.38a27.39,27.39,0,0,0-4.91-5.56c-3.17-2.65-3.55-2.45-6.82.16-4.82,3.85-10.3,4.79-15.77,2.06-10.14-5.06-20.18-10.36-30-15.94-7.07-4-9.18-12.44-5.32-19.9,5.72-11.07,11.64-22,17.48-33,9.8-18.5,19.81-36.89,29.31-55.54,4.63-9.09,14.24-12.4,23.18-7.19,8.07,4.7,16.44,8.89,24.75,13.16,6.48,3.32,10.18,8.17,9.83,15.75a4.13,4.13,0,0,0,1.59,2.94c3.71,2.73,7.53,5.33,11.41,7.82a7,7,0,0,0,3.48.93c8.61.25,17.21.48,25.82.49a8.19,8.19,0,0,0,4.65-1.67c3.65-2.82,7.07-5.93,10.57-8.94,8.87-7.58,18.93-10,30.34-7.4,14.31,3.32,28.69,6.4,43,9.69,11,2.54,21.22.37,31-5a34.58,34.58,0,0,1,0-4.89c.89-6.05,4.1-10.42,10-12.41,10.25-3.5,20.52-7,30.86-10.17,8.79-2.71,16.35,1.69,19.41,11q11.67,35.49,23.28,71c2.6,7.93,5.24,15.85,7.79,23.79,3.12,9.65-.81,17.35-10.48,20.55-8.62,2.86-17.37,5.4-25.89,8.55-8.34,3.08-15.38,2.21-21.31-5.66-1.82,1.4-4.06,2.38-5.17,4.09A54.93,54.93,0,0,1,277,278.54c7.2,7.78,9.28,16.33,3.9,25.44s-13.75,11.24-23.61,8.95c-3.27,16.4-16,21.08-27.79,17.58-1.13,6.73-4.38,12.11-10.64,15.16s-12.57,2.47-18.88-1c-.34.89-.66,1.64-.9,2.42a19,19,0,0,1-30.2,9.47c-3.91-3.06-7.63-6.36-11.37-9.49-12.94,8.36-27.19,2.11-29.65-12.73-13.08-1.11-18-5.29-20.34-17.48-5.31.32-10.23-1-14.25-4.83S87.93,303.51,87.65,298.15Zm75.87,42.17c3.68,3.12,7.16,6.15,10.72,9.06a10.06,10.06,0,0,0,16.31-5.31A9.55,9.55,0,0,0,187.17,334c-6.51-5.63-13.11-11.15-19.67-16.73a27.32,27.32,0,0,1-2.77-2.49,4.23,4.23,0,0,1-.28-5.79,4.47,4.47,0,0,1,5.73-1.08,13.71,13.71,0,0,1,2.06,1.6q12.15,10.28,24.27,20.56c2.67,2.25,5.25,4.62,8.08,6.66,3.58,2.59,7.47,2.56,11.22.3,3.55-2.15,5.11-6.08,4.39-10.35-.49-2.9-2.26-4.9-4.4-6.71q-14.58-12.32-29.12-24.67a32.09,32.09,0,0,1-3.07-2.74,4.4,4.4,0,0,1-.33-5.81,4.47,4.47,0,0,1,6-.88,14.43,14.43,0,0,1,1.76,1.38l19.7,16.69c6.28,5.32,12.49,10.72,18.87,15.92s15.59,2.64,17.77-5.09c1.36-4.8-.19-8.8-4-12q-18.85-15.94-37.67-31.93a15.69,15.69,0,0,1-2.44-2.3,4.4,4.4,0,0,1,5.76-6.47,25.13,25.13,0,0,1,3.22,2.54l42,35.56a32.28,32.28,0,0,0,3.5,2.8,10.62,10.62,0,0,0,11.68.25,10.43,10.43,0,0,0,5.28-10.4c-.27-3.78-2.53-6.34-5.28-8.67q-44.55-37.71-89.08-75.44a18.8,18.8,0,0,0-3-2.24c-4.09-2.24-10.33.56-10.1,4.63.71,12.23-3.73,22.72-10.9,32.19a33.93,33.93,0,0,1-7.88,7.33c-6.58,4.46-13.42,4-19.86-.6a8.67,8.67,0,0,1-4-7.83c.16-13.1.26-26.2,0-39.29-.18-8.66,2.79-15.53,9.68-20.77,2-1.55,3.89-3.35,6.41-5.54-2.06-.15-3.28-.3-4.5-.32-5-.11-10-.28-15-.24a10.12,10.12,0,0,1-6.24-2c-4-2.88-8.17-5.62-12.59-8.64L60.36,244.7c3.46,3,7.09,5.56,9.86,8.81s4.68,7.23,7.19,11.25c4.6-6,10-10,17.63-9.35s12.44,5,15.47,11.82c6.71-5,13.65-6.15,20.84-2.08,7.37,4.18,9.39,11.14,8.73,19,7,1.05,12,4.44,14.77,10.64s1.58,12.1-1.88,17.71C164.56,316.18,170.34,327.81,163.52,340.32ZM271.36,162.91c-1.46.63-2.38,1-3.27,1.41-11.17,5.18-22.69,6.05-34.65,3.21-13.56-3.22-27.21-6.1-40.78-9.29-8.67-2-16.23-.24-23,5.55-10,8.63-20,17.24-30.2,25.69a15.09,15.09,0,0,0-5.86,12.65c.15,12.35,0,24.69.05,37,0,4.07,2.79,6.31,6.78,5.27a10.51,10.51,0,0,0,4.32-2.1c9-8.09,13.82-18.14,13.5-30.33a12.94,12.94,0,0,1,3-9.31,16.41,16.41,0,0,1,23.4-2.1c9.22,7.64,18.3,15.43,27.43,23.17q27.54,23.32,55.06,46.68c1.27,1.08,2.27,2.1,4.21,1,5.46-3.12,10.76-6.48,14.4-11.68s7.14-9.89,13.41-12.17Zm80.49,74.89c-.22-.82-.46-1.91-.81-3q-15.42-47-30.85-94.06c-1.81-5.51-4.45-6.83-9.95-5-8.88,2.89-17.69,6-26.63,8.68-5.24,1.57-7.43,4.68-5.41,10.72,10.3,30.82,20.31,61.74,30.43,92.62a21.19,21.19,0,0,0,1.2,3.14c1.37,2.71,4,4.1,6.82,3.2q15.68-4.95,31.24-10.21C350.49,243,351.74,240.86,351.85,237.8Zm-309,12.6c3.6-.06,5.34-1.79,6.65-4.29,4.33-8.27,8.74-16.5,13.11-24.75q16.69-31.52,33.38-63c2.65-5,1.87-7.89-2.92-10.46-8.78-4.7-17.57-9.38-26.41-14-4.18-2.17-7.13-1.26-9.33,2.89q-23.56,44.36-47,88.77c-2.32,4.39-1.43,7.24,2.92,9.58q13.16,7.08,26.39,14A25.24,25.24,0,0,0,42.82,250.4Zm63,58c1.93-1,4.31-1.54,5.72-3q9.14-9.58,17.76-19.65a8.48,8.48,0,0,0-1-11.79,8.26,8.26,0,0,0-11.52.13c-6.27,6.56-12.32,13.34-18.23,20.23-2.28,2.65-2.29,6-.61,9.11S102.13,307.85,105.8,308.38Zm19.86,17.22c1.86-.88,4.15-1.34,5.49-2.73,5-5.07,9.76-10.33,14.31-15.77a8.34,8.34,0,0,0-1.1-11.77,8.76,8.76,0,0,0-11.87.53c-1.78,1.73-3.4,3.64-5.07,5.5-2.91,3.24-5.89,6.44-8.68,9.78a8,8,0,0,0-1.08,9.11C119.2,323.44,121.84,325.09,125.66,325.6ZM78.52,280.22a8.31,8.31,0,0,0,4.62,7.7c3.15,1.65,6.5,1.58,9.09-.79a73.31,73.31,0,0,0,8.72-9.66,8,8,0,0,0-.47-9.74c-2.25-2.88-6.1-4.4-9.29-2.88-5.8,2.76-9.53,7.72-12.43,13.3A5.7,5.7,0,0,0,78.52,280.22Zm79,49.76a8.23,8.23,0,0,0-4.77-7.82,7.83,7.83,0,0,0-9.07,1,26.33,26.33,0,0,0-5,5.5,8.47,8.47,0,0,0,5.16,13C149.56,343.11,157.44,336.41,157.49,330Z"></path><path d="M76.24,50.89C69,44.35,65.17,36.56,65.64,27A27.35,27.35,0,0,1,74.52,7.78a28.26,28.26,0,0,1,39,0,27.55,27.55,0,0,1,8.84,21.82c-.31,8.58-4.16,15.46-10.77,21.4a50.64,50.64,0,0,1,25.89,24.43,57.16,57.16,0,0,1,24.09-17.92C143.28,42.15,146.84,20,158.38,8.94a31.84,31.84,0,0,1,44.79.71c11.18,11.41,13.84,33-3.89,47.83a57.08,57.08,0,0,1,24,18c5.83-11.24,14.16-19.42,26-24.35-8-7.24-11.85-15.75-10.62-26.2a27.34,27.34,0,0,1,9.66-18,28.47,28.47,0,0,1,39,1.79c9,9.25,13,27.56-2.55,42.22.8.44,1.5.86,2.23,1.23,17.08,8.7,26.51,22.49,27.64,41.75.17,2.86.15,5.73.13,8.6,0,5.34-1.33,6.66-6.62,6.66q-33.32,0-66.61,0h-7.28c0,2.74,0,5.31,0,7.87-.09,4.06-1.64,5.69-5.7,5.69q-48.07,0-96.17,0c-4.24,0-5.74-1.61-5.81-6,0-2.35,0-4.7,0-7.61H53.94c-7,0-7.79-.86-7.9-8-.13-8.94.6-17.67,4.59-25.88A48.17,48.17,0,0,1,73.39,52.38C74.25,52,75.09,51.5,76.24,50.89Zm149,62.72c.84-19.74-6.05-35.23-23.27-44.75-16.16-8.94-32.48-7.85-47.55,2.79-14.3,10.11-19.78,24.57-18.73,42ZM305.58,100c0-2.66.14-5.12,0-7.56-1.2-17.92-15.44-33-33.44-35.39-18.16-2.45-36.39,8.78-42,25.91a5.81,5.81,0,0,0-.38,3.23c1.34,4.62,2.91,9.18,4.41,13.81Zm-178.72,0c1.23-4.07,2.16-8,3.59-11.65a7.6,7.6,0,0,0,.06-6.06c-5.84-14.35-16.37-23.19-31.69-25.14-15.5-2-28.09,4-37.09,16.82-5.42,7.71-7.27,16.45-6.46,26Zm53.49-45.84c13.06,0,22.8-9.65,22.73-22.5a22.65,22.65,0,1,0-45.3.21C157.81,44.52,167.54,54.13,180.35,54.12Zm86.43-6.35c11.05,0,19.54-8.4,19.54-19.29a19.45,19.45,0,1,0-38.9.19A19.13,19.13,0,0,0,266.78,47.77ZM94,47.75A19.12,19.12,0,0,0,113.44,28.4a19.45,19.45,0,0,0-38.9,0A19.07,19.07,0,0,0,94,47.75Z"></path></g></g></svg> 