<?xml version="1.0" encoding="UTF-8"?> <svg xmlns="http://www.w3.org/2000/svg" viewBox="0 0 384 351.25"><g id="Layer_2" data-name="Layer 2"><g id="Layer_1-2" data-name="Layer 1"><path d="M0,307.87A17.47,17.47,0,0,0,.8,305a29,29,0,0,1,12-20.73c1.08-.81,2.17-1.59,3.64-2.68-9.29-10-12.35-21.24-7.49-33.89a28.7,28.7,0,0,1,17.08-16.87,29.37,29.37,0,0,1,27.62,2.76c8.59,5.49,13.05,13.74,14.65,23.89.26-1,.59-2,.76-3.06,2-11.92,8.89-19.85,20.06-24,4.19-1.56,4.08-1.65,4.08-5.82q0-20.77,0-41.54c0-.74,0-1.49,0-2.24a2.27,2.27,0,0,0-2.54-2.54c-2.88,0-5.76-.17-8.63,0-4.9.23-7.25-2.3-7.35-7-.15-7.59,0-15.21.32-22.8.2-4.52,2.11-6.1,6.6-6.52,5.57-.52,5.57-.52,5.58-6,0-3.86,0-7.73,0-11.6a7.83,7.83,0,0,1,2.09-5.83c3.49-3.56,7.07-7,10.63-10.54a5.42,5.42,0,0,1,1.35-.6l7.44,8.17c-2.15,2.16-4.5,4.71-7.07,7a8,8,0,0,0-2.89,6.9c.2,3.11,0,6.24.08,9.35.08,2.69.37,2.95,3.12,3s5.25,0,7.87,0h34.12c1,0,2,0,3-.05a2,2,0,0,0,2.21-2,20.87,20.87,0,0,0,.12-2.24c0-9.73,0-19.46,0-29.19,0-4-.31-4.3-4.24-4.31-8.38,0-16.75-.11-25.12,0a10.32,10.32,0,0,1-8-3.3q-23-23.07-46.11-46.07A19.82,19.82,0,0,1,63.4,51.9a5.09,5.09,0,0,1,0-6,19.19,19.19,0,0,1,2.38-2.87Q73.31,35.49,80.89,28c4.19-4.14,7.39-4.14,11.58,0,10.27,10.21,20.56,20.4,30.72,30.73a9.53,9.53,0,0,0,7.58,3.12c9.75-.16,19.5,0,29.25-.07,1.21,0,2.43-.15,4.37-.28-.86-1.51-1.36-2.57-2-3.51-11.5-16.16-8.58-37.63,6.87-49.94a36.53,36.53,0,0,1,52.48,49.82c-.69,1-1.23,2-2.22,3.68,2.81.1,4.89.26,7,.23a38.31,38.31,0,0,1,13.27,2c11.09,3.89,19.57,15.37,19.64,26.33.09,15.46.09,30.93.16,46.39,0,1.69.28,3.38.43,5.08a21.5,21.5,0,0,0,2.62.37c6.38,0,12.75.06,19.12,0,3.2,0,3.44-.29,3.51-3.42.07-3.37-.06-6.74.05-10.1a6.23,6.23,0,0,0-2.09-5c-2.6-2.51-5.1-5.13-7.63-7.71a4.76,4.76,0,0,1-.34-.78,65.88,65.88,0,0,1,8-7.76c1.77,1.68,3.39,3.19,5,4.74,2,2,4.07,4,6.09,6.09a8.57,8.57,0,0,1,2.58,6.4q-.09,6.93,0,13.85c0,3.33.3,3.52,3.67,3.69a20.75,20.75,0,0,1,3.35.28c3.41.73,4.91,2.07,5.05,5.53.32,8,.55,16,.35,23.91-.11,4.61-2.67,6.81-7.3,6.59-2.62-.13-5.25-.08-7.87,0-2.87.1-3.25.47-3.3,3.31-.08,4.23,0,8.48,0,12.72q0,15.15,0,30.31c0,4.17-.12,4.26,4.08,5.82,11.17,4.16,18.07,12.09,20.06,24a10.51,10.51,0,0,0,1,3.05c2.6-15.86,11.15-26.19,27.33-28.45,12.34-1.72,22.63,3.22,29.14,13.74,8.43,13.62,5.95,26.65-4.69,38.72.92.76,1.7,1.5,2.57,2.12,7.53,5.36,12.06,12.48,13,21.77a13.29,13.29,0,0,0,.77,2.47V346a5.61,5.61,0,0,0-.82,1.23c-1,3-3.19,4-6.09,4l-2.62,0H9.53c-1.37,0-2.75,0-4.11-.15a4.85,4.85,0,0,1-4.15-2.79C.87,347.54.42,346.8,0,346Zm254.12-50.48c.32-1.43.64-2.86.95-4.29,2.49-11.31,9.44-18.71,20.12-22.79,3.92-1.49,4-1.42,4-5.52q0-20.21,0-40.41c0-6.13,0-6.14-6.18-6.14H110.66c-.75,0-1.5,0-2.24,0-3.11.13-3.56.45-3.57,3.46,0,14.72,0,29.44,0,44.16,0,2.17.73,3.4,2.89,4.12,12.25,4.09,19.47,12.55,21.73,25.25a27.49,27.49,0,0,0,.83,2.77c2.66-19.16,15.32-27.84,27.92-29.15A29.3,29.3,0,0,1,176.5,233c9.32,5.53,14,14.06,15.49,24.82,1.25-8.27,4.21-15.48,10.36-21,6.32-5.71,13.85-8.74,22.32-7.91C241.86,230.52,251,240.85,254.12,257.39ZM77,49.26a19.71,19.71,0,0,0,1.52,1.93q19.59,19.61,39.2,39.19A7,7,0,0,0,123,92.56c9.13-.08,18.25,0,27.37,0,8.78,0,10.07,1.27,10.08,9.84,0,11.47,0,22.95,0,34.42,0,1.57.29,3.14.43,4.58,4.65,1,52.9.74,55.91-.28.06-1.35.2-2.82.2-4.29q0-16.1,0-32.18c0-.87,0-1.75,0-2.62.14-2.48.42-2.83,2.82-3,1.87-.1,3.75-.09,5.62,0,2.7.12,3,.42,3.14,3.06.06,1.12,0,2.25,0,3.37,0,10.85,0,21.7,0,32.55,0,3.6.31,3.86,3.84,3.91q6,.07,12,0c3.4-.05,3.77-.32,3.78-3.59.05-15,.13-29.94,0-44.9-.07-6.65-2.41-12.43-8-16.53-3.81-2.78-8.1-3.6-12.73-3.59-33.12,0-66.23,0-99.35.1a14.29,14.29,0,0,1-11.23-4.7C108.14,59.65,99.11,50.84,90.17,42c-1-1-2.19-1.92-3-2.66ZM192.38,153.52H92.66l-3.75,0c-1.89,0-2.7,1-2.72,2.81,0,1.49,0,3,0,4.49,0,5.79,0,5.8,5.73,5.8h200.2c1,0,2-.05,3,0,1.92.05,2.69-1,2.71-2.77,0-1.5,0-3,0-4.49,0-5.84,0-5.85-5.73-5.85ZM36.84,340.07c7.25,0,14.5,0,21.75,0,3.27,0,3.77-.43,3.79-3.23,0-9.61.29-19.23-.1-28.82-.33-8-4.49-13.86-12.06-17-4.71-2-21.59-1.94-26.25,0-8.18,3.48-11.88,10-12,18.6s-.07,17.46,0,26.19c0,3.92.32,4.21,4.34,4.23C23.09,340.1,30,340.07,36.84,340.07Zm309.81,0c7.25,0,14.5,0,21.75,0,3.08,0,3.66-.44,3.67-3,.06-9.72.4-19.48-.12-29.18a18.82,18.82,0,0,0-19.85-18.25c-3.49.18-7,0-10.5,0-11.75.1-19.84,8-20,19.69-.11,8.85-.05,17.71,0,26.57,0,3.75.32,4.09,4,4.11C332.65,340.1,339.65,340.07,346.65,340.07Zm-185.74,0h0c7.24,0,14.49.05,21.73,0,3,0,3.51-.45,3.53-3.09,0-10,.26-19.95-.11-29.91-.35-9.37-8.52-17-18-17.31-4.62-.15-9.24-.09-13.86,0A18.07,18.07,0,0,0,142.87,294c-5.14,4.21-7,9.88-7.14,16.21-.14,8.6-.07,17.21,0,25.81,0,3.58.49,4,4.22,4.05C146.92,340.11,153.91,340.07,160.91,340.07Zm61.9,0c7.12,0,14.24.05,21.36,0,3.63,0,4.1-.51,4.12-4.15q.09-11.77,0-23.56a44.37,44.37,0,0,0-.51-6.31,18.54,18.54,0,0,0-18.47-16.32c-4-.1-8-.07-12,0-11.32.13-19.37,8.06-19.5,19.31-.1,9,0,17.95,0,26.92,0,3.8.3,4.1,4,4.13C208.82,340.11,215.82,340.07,222.81,340.06Zm-123.9,0h0c7.24,0,14.48,0,21.72,0,3.16,0,3.8-.5,3.79-3.3,0-10.08.12-20.19-.52-30.24-.6-9.57-8.67-16.56-18.35-16.79-4.11-.1-8.24-.08-12.35,0-11,.17-19.06,8.18-19.17,19.23-.08,9,0,17.94,0,26.91,0,3.94.26,4.2,4.29,4.23C85.18,340.1,92,340.07,98.91,340.07Zm185.78,0h0c7.12,0,14.23,0,21.35,0,3.6,0,3.92-.36,3.93-3.82,0-9.35.11-18.69,0-28a18.72,18.72,0,0,0-18.36-18.48c-4.49-.12-9-.13-13.48,0-9.4.28-17.42,7.37-18,16.74-.63,10.06-.47,20.16-.52,30.24,0,2.81.63,3.3,3.77,3.33C270.46,340.11,277.58,340.06,284.69,340.06ZM217,36.41a24.39,24.39,0,0,0-25.07-24.83c-16.78.07-25,13.92-25,25,.05,12.54,9.76,25,25,25.06A24.68,24.68,0,0,0,217,36.41Zm-99,222.9a18.94,18.94,0,1,0-37.87-.16A19.28,19.28,0,0,0,99,278.07,19,19,0,0,0,118,259.31ZM266,259.22a19,19,0,0,0,18.88,18.85,19.28,19.28,0,0,0,19-18.84,18.94,18.94,0,1,0-37.87,0ZM160.92,240.28c-9.75-.19-19,8.58-18.73,18.88.31,10.6,8.62,19,19.17,18.91a19.44,19.44,0,0,0,18.7-18.8A19,19,0,0,0,160.92,240.28ZM241.75,259c.52-10.07-8.93-18.85-18.86-18.71-10.36.15-19.1,8.5-18.9,18.83a19.06,19.06,0,0,0,18.85,19A18.8,18.8,0,0,0,241.75,259Zm-223.43.22a19,19,0,0,0,18.8,18.9,19.32,19.32,0,0,0,19-18.83,19,19,0,0,0-18.74-19A18.7,18.7,0,0,0,18.32,259.18Zm328.53-18.9a19,19,0,0,0-19,18.73c-.16,10.07,8.59,19,18.77,19.06a19,19,0,0,0,19.05-19A18.71,18.71,0,0,0,346.85,240.28ZM120.33,281.73l9.76,8.58c3.4-3,6.61-5.82,10.13-8.9a34,34,0,0,1-9.91-21.08c-1.29,3.78-2,7.62-3.53,11.07S122.76,277.91,120.33,281.73Zm123.42-.31L254,290.3l9.71-8.59c-2.28-3.57-4.8-6.71-6.43-10.27s-2.27-7.31-3.34-11A35.33,35.33,0,0,1,243.75,281.42Zm-175.6,8.81,9.9-8.67c-1.69-2.33-3.46-4.41-4.82-6.73s-2.13-4.72-3.27-7.06-.12-5.3-2.09-7.63a4,4,0,0,0-.42,1,28.58,28.58,0,0,1-7.67,18.15,13.78,13.78,0,0,0-1.43,2.38Zm238-8.52,9.8,8.5,9.7-8.55c-2.26-3.49-4.8-6.61-6.41-10.16s-2.22-7.4-3.33-11.32c-1.09,3.91-1.71,7.86-3.31,11.38S308.37,278.22,306.1,281.71ZM192,290.12l9.76-8.39c-2.18-3.36-4.63-6.38-6.21-9.8s-2.38-7.39-3.72-11.74a76.63,76.63,0,0,1-1.84,7.88,42.23,42.23,0,0,1-3.44,7.41,69.51,69.51,0,0,1-4.52,6.13Z"></path><path d="M186.52,86.77H197.4c.68,3.59.4,7.09.22,10.94h-11.1Z"></path></g></g></svg> 