<?xml version="1.0" encoding="UTF-8"?> <svg xmlns="http://www.w3.org/2000/svg" viewBox="0 0 384 383.4"><g id="Layer_2" data-name="Layer 2"><g id="Layer_1-2" data-name="Layer 1"><path d="M302,97.36c1.21-1.67,2.09-2.78,2.87-4,9.15-14,18.18-28,27.51-41.89a36,36,0,0,1,8.42-9.09c15.07-10.85,38.66-3.53,42.72,17.48a27,27,0,0,1-3.57,19.38c-2.3,4-4.85,7.77-7.36,11.6q-28.72,44-57.55,87.91a11.45,11.45,0,0,0-1.93,8.34q3.56,26.19,7,52.4c2,15.47,4,31,6,46.43.65,5.07,1.36,10.14,2.1,15.19a24.81,24.81,0,0,1-20.89,28c-8.52,1.2-17.1,2-25.6,3.43a111.27,111.27,0,0,0-14.07,3.51q-76.39,22.92-152.74,46c-13.64,4.14-25.31-2-30.29-11.32a38.71,38.71,0,0,1-2.82-7.11Q61,294.83,40.3,226,21.12,162.18,1.93,98.37C.54,93.73-.66,89.11.41,84.1c2.1-9.88,7.88-16.4,17.4-19.41,12.58-4,25.25-7.65,37.88-11.46,2.7-.81,5.39-1.71,8.12-2.43s4-1.8,4.21-4.89c.71-8.38,4.47-15.36,12-19.42A36,36,0,0,1,91.87,22.8c15.44-2.22,30.94-4,46.41-6.06s30.66-4.14,46-6.17c13.06-1.73,26.14-3.38,39.22-5.09S249.92,2.16,263.1.25s26.14,7.2,28,20.35c2.37,16.65,4.42,33.34,6.61,50Q299.35,83,301,95.41A12.09,12.09,0,0,0,302,97.36Zm-51.11,78.15a29.56,29.56,0,0,0-3.36,0q-14,1.83-28,3.71c-6.8.92-13.58,2-20.39,2.72-4,.42-6.64-1.76-6.91-5.11-.27-3.52,1.77-5.85,5.78-6.39q19-2.51,38-5c6.53-.85,13.07-1.68,19.59-2.61,2.23-.32,4.39-.66,5.87-3,9.56-14.82,19.29-29.54,28.84-44.38a8.36,8.36,0,0,0,1.12-4.91c-.39-4.54-1.2-9.06-1.81-13.59-1.74-12.93-3.44-25.86-5.19-38.79-1.59-11.73-3.08-23.47-4.86-35.17-1.19-7.74-7.71-12.36-15.48-11.4-2.13.27-4.27.54-6.4.83l-47.2,6.26-40.79,5.42q-19.2,2.52-38.41,5c-13.2,1.71-26.43,3.27-39.61,5.15-8.71,1.24-13.28,7.82-12,16.5.5,3.33.92,6.67,1.35,10q2.61,19.8,5.19,39.61,2.66,20.19,5.32,40.39,2.61,19.81,5.2,39.61,2.64,20.2,5.31,40.4,2.61,19.8,5.2,39.61,3.06,23.4,6.15,46.8c1,7.59,1.9,15.22,3.21,22.77A12.86,12.86,0,0,0,131,340.77c15.08-1.9,30.13-4,45.2-6q16.59-2.19,33.2-4.34L243.82,326q16.8-2.19,33.6-4.42c9.33-1.24,18.69-2.29,28-3.86,8-1.35,12.2-7.56,11.16-15.55-1.33-10.27-2.7-20.53-4.05-30.8q-4-30.2-8-60.39c-.51-3.77-1.18-7.52-1.77-11.28l-1-.18c-.84,1.14-1.75,2.25-2.53,3.44-6.86,10.47-13.77,20.92-20.51,31.48a46.14,46.14,0,0,1-9.78,11.16c-5.11,4.18-10,8.63-15,12.95-4.39,3.78-8.66,7.71-13.22,11.27a15.34,15.34,0,0,1-18.47.85,15.85,15.85,0,0,1-6.74-17.6c1.08-4.17,2.44-8.26,3.63-12.4.36-1.23.55-2.51.88-4.07a17.56,17.56,0,0,0-3.17-.2q-16,2-32,4.18-22.8,3-45.59,6.06a12.56,12.56,0,0,1-1.62.08c-3.9,0-6.58-2.14-6.75-5.43s2-5.57,5.77-6.1c8-1.13,16-2.16,24-3.24,19.86-2.69,39.7-5.49,59.58-8,3.62-.45,5.22-1.95,6-5.22a47.29,47.29,0,0,1,7.42-16.45c5.14-7.41,9.91-15.07,14.82-22.64C249.21,178.48,249.87,177.22,250.86,175.51ZM69.09,61.66a34,34,0,0,0-3.42.61C51,66.66,36.24,71,21.59,75.53,13.5,78,10,84.82,12.36,93s4.84,16.25,7.29,24.37Q56.27,238.93,92.78,360.55c2.4,8.05,9.1,13.35,19,10.35,28.32-8.63,56.69-17.11,85-25.66a16.09,16.09,0,0,0,2.15-1,9.45,9.45,0,0,0-3.79-.38c-6.54.81-13.07,1.69-19.61,2.54-14.54,1.89-29.06,3.88-43.62,5.61a24,24,0,0,1-26.16-17.55,66.25,66.25,0,0,1-1.59-9.13c-1.8-13.46-3.54-26.93-5.31-40.4q-2.59-19.8-5.21-39.61c-1.75-13.33-3.46-26.68-5.21-40s-3.54-26.4-5.27-39.6c-2-15.34-4-30.68-6-46q-3.51-26.81-7.08-53.6C69.94,64.68,69.48,63.3,69.09,61.66ZM322,88.33c-26.83,41.11-53.34,81.7-80.13,122.73l26.83,17.53c26.81-41.07,53.32-81.67,80.13-122.72Zm44.56-10.75c6-6.09,7.45-13,4.36-19.59a16.25,16.25,0,0,0-15.32-9.21,16.08,16.08,0,0,0-14.48,12ZM237,221.83c-1.36,4.31-2.36,7.75-3.54,11.12-.79,2.24-.18,3.51,2,4.32a31.85,31.85,0,0,1,12.26,8.21,11.28,11.28,0,0,0,1.88,1.24l10.83-9.56ZM328.27,78.67l26.81,17.47c2-3.08,3.6-5.6,5.53-8.61L334,70.18Zm-98.38,169c-1.8,2.49-3.4,6.9-3.4,9.12,0,3.78,3.5,6,6.63,4a73.54,73.54,0,0,0,7.08-5.92A17,17,0,0,0,229.89,247.68Z"></path><path d="M257.63,105.62c5.15-.45,7.44,2.92,6.87,6.71-.4,2.64-2.29,4.42-5.66,4.89-6.66,1-13.34,1.73-20,2.6q-19.59,2.55-39.2,5.13c-13.19,1.75-26.38,3.55-39.57,5.31-11.73,1.56-23.47,3.08-35.19,4.66-4.4.59-7.5-1.23-7.93-4.78-.41-3.37,1.49-5.95,5.14-6.5,6.25-.94,12.53-1.69,18.79-2.52l39.59-5.23q20.21-2.67,40.39-5.34,16.4-2.17,32.79-4.39Z"></path><path d="M250.22,50c4.33-.05,6.72,1.78,7,5,.34,3.49-1.74,6-5.65,6.51-14.78,2-29.58,3.84-44.36,5.78q-23,3-46,6.11c-2.4.32-4.79.7-7.19,1-3.81.42-6.74-1.6-7.15-4.86-.45-3.55,1.49-6.06,5.45-6.6,12.24-1.69,24.5-3.28,36.75-4.89l40-5.26Z"></path><path d="M145,302.43c-3.47-.06-5.92-2.2-6.13-5.27-.22-3.34,1.76-5.68,5.5-6.22,6.12-.88,12.25-1.64,18.37-2.45,7.59-1,15.18-2,22.78-3a44.7,44.7,0,0,1,6.83-.45,4.91,4.91,0,0,1,5.15,4.64c.34,3.08-1,5.48-3.89,6.21a82.51,82.51,0,0,1-9.14,1.5q-19.17,2.52-38.37,4.95C145.69,302.42,145.29,302.42,145,302.43Z"></path><path d="M154,176.09c5.17-.14,7.38,1.29,7.89,4.47.59,3.69-1.39,6.35-5.52,7-4.51.71-9.06,1.18-13.59,1.76-3.07.39-6.13.78-9.2,1.19-.53.07-1,.23-1.58.3-4.66.56-7.87-1.35-8.34-4.94s2.06-6,6.89-6.63C138.64,178.18,146.76,177.06,154,176.09Z"></path></g></g></svg> 