<?xml version="1.0" encoding="UTF-8"?> <svg xmlns="http://www.w3.org/2000/svg" viewBox="0 0 384 296.91"><g id="Layer_2" data-name="Layer 2"><g id="Layer_1-2" data-name="Layer 1"><path d="M289.14,17.86c3.7,0,6.9.1,10.09,0C311.56,17.42,320,23,325.45,34Q352.71,89,380.27,143.91A33.63,33.63,0,0,1,384,159.76c-.18,37.42-.09,74.84-.1,112.25,0,13.38-9,23.35-22.36,24.58-2.31.22-4.63.32-7,.32q-163.35,0-326.7,0a45.16,45.16,0,0,1-9.23-.71C6,293.54,0,281.53.06,273q.12-57.48-.06-115a33.68,33.68,0,0,1,3.85-15.87q19.67-38.76,39.22-77.56C48.54,53.81,54.19,43.1,59.53,32.23c4.7-9.58,12.37-14.15,22.85-14.34,4-.08,7.93,0,12.3,0,0-3.58,0-6.77,0-10,.07-6.54,1.45-7.91,8-7.91H280.78c7.15,0,8.31,1.18,8.35,8.29C289.15,11.26,289.14,14.21,289.14,17.86Zm-97.28,267h161.8c1.8,0,3.62,0,5.41-.16,8.61-.76,12.52-4.83,12.54-13.54q.09-57.09,0-114.17c0-9-4.67-13.57-13.71-13.6-27.74-.09-55.48-.05-83.22-.12-4,0-6.4,1.73-7.94,5.42-2.67,6.42-5.71,12.68-8.49,19.05-3.08,7.08-8.43,10.31-16.11,10.3q-50.13-.1-100.25,0c-7.71,0-13.07-3.22-16.2-10.22-2.84-6.35-5.83-12.64-8.47-19.06a8.2,8.2,0,0,0-8-5.57c-2.58-.09-5.16.09-7.74.09q-36.18,0-72.38.07a44.78,44.78,0,0,0-7.31.6c-4.62.78-7.73,3.42-8.73,8.13a28.43,28.43,0,0,0-.65,5.73q0,56.13,0,112.25a28.62,28.62,0,0,0,.23,4.25c.91,5.85,3.87,8.94,9.74,9.9a53.18,53.18,0,0,0,8.46.62Q111.36,284.87,191.86,284.84ZM71.33,131.15c6,0,11.57,0,17.11,0,7.22,0,14.45,0,21.68-.11,8.39-.15,14.3,3.33,17.6,11.22,2.63,6.29,5.61,12.44,8.28,18.72,1.46,3.41,3.8,4.83,7.51,4.83q48.39-.11,96.77,0c4.09,0,6.38-1.65,7.92-5.35,2.76-6.65,5.87-13.16,8.84-19.73,1.65-3.65,4.11-6.75,7.91-8.06a29.69,29.69,0,0,1,9.07-1.52c10.32-.18,20.65,0,31-.07,2.54,0,5.08-.22,7.63-.34V106.82H71.33ZM88.36,95H295.68V58.83H88.36ZM278,11c-1.23-.06-2-.14-2.75-.14h-166c-3.59,0-3.7.11-3.71,3.69q0,14.31,0,28.63c0,4.48,0,4.49,4.46,4.49h164c1.25,0,2.51-.11,3.94-.17Zm-183.61,19c-3.35,0-6.32.17-9.26,0-7.74-.55-12.64,3.2-16,9.83Q48,82,26.7,124.07c-1,2.05-2,4.16-3.05,6.49h36.7c0-1.71,0-3.11,0-4.51,0-8,0-16,.16-24,.06-4.79,1.43-6.18,6.21-6.42,2.45-.12,4.91,0,7.36-.07,1,0,2-.25,3.17-.41V91.41c0-12,0-24,0-36,0-6.26,1.28-7.5,7.43-7.51h9.69ZM359.57,130.65a42.35,42.35,0,0,0-2-6q-20.76-41-41.64-81.91c-1.11-2.17-2-4.58-3.5-6.41-1.66-2-3.77-4.49-6.05-5-5.47-1.11-11.15-1.16-17-1.66V47.89h9.83c6,0,7.5,1.48,7.52,7.54,0,11.86,0,23.72,0,35.59v4.73c3.82,0,7.28-.14,10.72,0,4.68.25,5.77,1.18,6,5.8.28,7.47.22,15,.29,22.42,0,2.16,0,4.31,0,6.64Z"></path><path d="M192.19,209q20.7,0,41.39,0c7.12,0,10.5,3.2,10.6,10.31q.19,12.18,0,24.37c-.12,6.76-3.62,10.17-10.45,10.18q-41.57.09-83.16,0c-7.21,0-10.73-3.43-10.92-10.67-.2-8-.18-16,0-24,.14-7,3.7-10.2,10.78-10.21Q171.3,208.93,192.19,209Zm-41.73,33.84H233V219.91H150.46Z"></path></g></g></svg> 