<?xml version="1.0" encoding="UTF-8"?> <svg xmlns="http://www.w3.org/2000/svg" viewBox="0 0 361.53 366.16"><g id="Layer_2" data-name="Layer 2"><g id="Layer_1-2" data-name="Layer 1"><path d="M149.4,333h-5.09q-60.93,0-121.86,0a32.46,32.46,0,0,1-8.87-1A19.17,19.17,0,0,1,0,314.09c0-1.12,0-2.24,0-3.37Q0,191,.05,71.22A29,29,0,0,1,1.21,62.4C3.76,54.49,11,49.55,19.84,49.31c5-.14,10,0,15,0h3.94c.08-1.36.2-2.44.2-3.53,0-8.48,0-17,0-25.45C39.06,8.93,46.53,1,57.84.11,59.33,0,60.83,0,62.33,0q138,0,276,0a40,40,0,0,1,8.2.6,19.44,19.44,0,0,1,15,17.56c.09,1.36,0,2.74,0,4.11q0,119.57,0,239.13a32.52,32.52,0,0,1-.73,7.77,18.76,18.76,0,0,1-17.2,14.31c-5.48.32-11,.15-16.49.19h-4.3c-.09,1.39-.23,2.46-.23,3.54,0,8.48-.19,17,0,25.44a19.8,19.8,0,0,1-20,20.3c-15.62-.1-31.24,0-46.86,0h-4.4c-.1,1.46-.24,2.66-.24,3.85,0,7.49,0,15,0,22.45,0,5.18-1.57,6.85-6.64,6.86q-44.25,0-88.49,0c-4.92,0-6.53-1.69-6.56-6.56,0-7.48,0-15,0-22.45Zm3.53-59,.23-.85a13.82,13.82,0,0,0-2.32-.92c-7.54-1.53-10.7-9.66-6.5-16.41,3.69-5.92,6.84-12.17,10.24-18.27q19-34.14,38-68.26a14.35,14.35,0,0,1,3.08-4.15c3.62-3,8.67-1.88,11.18,2.42,3.26,5.6,6.34,11.31,9.49,17,13.2,23.74,26.26,47.58,39.7,71.19,4.32,7.58.53,15-6.37,16.48a12.11,12.11,0,0,0-2.43,1.13l.15.66h3.69q44,0,88.1,0a13.19,13.19,0,0,0,4.09-.23,17.33,17.33,0,0,0,5.55-2.78c2.56-2.16,2.93-5.3,2.92-8.54q0-93.36,0-186.72c0-1.08-.12-2.17-.2-3.53h-5q-89,0-178.09,0a13.37,13.37,0,0,1-10.61-4.44c-5.94-6.41-12.13-12.58-18.14-18.93a6.06,6.06,0,0,0-4.88-2.06c-13.62.08-27.25,0-40.87,0-1,0-1.92.13-3.14.22,0,5-.23,9.68,0,14.37.41,6.63-4.07,11-10.84,10.8-9.12-.23-18.24-.06-27.37,0-1.2,0-2.4.13-3.87.21V260.79c0,1.12,0,2.24,0,3.36.24,5.57,3.84,9.31,9.38,9.74,1.11.09,2.24.07,3.37.07h91.41ZM167.4,296c-.38-2.91-.52-5.36-1.07-7.72-1-4.41-1.23-4.49-5.77-4.49q-49.11,0-98.21,0a43.51,43.51,0,0,1-6.36-.32c-8.22-1.18-13.65-5.88-16.11-13.7a27.5,27.5,0,0,1-.85-8.12q-.08-99,0-197.92V59.25c-7.19,0-13.93-.29-20.62.09-5,.29-8.27,4.26-8.57,9.28-.08,1.25,0,2.5,0,3.74V259.43q0,26.37,0,52.75c0,7.14,3.72,11,10.73,11q63.16.06,126.32,0a19.67,19.67,0,0,0,2.59-.41c0-5.59-.13-10.95,0-16.3.19-6.49,4.22-10.35,10.7-10.49C162.36,296,164.58,296,167.4,296ZM351.76,62.42V55.6c0-11.6,0-23.2,0-34.8,0-7.06-3.77-10.78-10.87-11-1.12,0-2.24,0-3.37,0H122.31q-31.12,0-62.24,0c-7.63,0-11.29,3.7-11.3,11.24q0,19.08,0,38.16c0,1,.13,1.91.2,2.88H80.78a5.75,5.75,0,0,0,.24-1c0-4.49.24-9,0-13.47-.35-6.12,3.82-10.8,10.58-10.68,14.86.24,29.74.15,44.61,0a12.16,12.16,0,0,1,9.6,4.1c5.8,6.19,11.87,12.14,17.62,18.38a8.74,8.74,0,0,0,7.15,3q88.31-.14,176.59-.07ZM177.21,295.74h46.25A34.33,34.33,0,0,1,230,274.82c4.59-6.28,10.81-10.2,18.44-12.51l-42.3-76.16a5,5,0,0,0-.92,3c0,5.74,0,11.48,0,17.21a4.2,4.2,0,0,0,2.51,4.38c5.82,3.22,8.28,8.41,7.66,15a14.91,14.91,0,0,1-10.39,12.53c-6.15,1.75-11.78.54-16.1-4.24a15.18,15.18,0,0,1,3.83-23.22c2-1.16,2.8-2.35,2.75-4.62-.15-5.73,0-11.47-.07-17.21a22.2,22.2,0,0,0-.3-2.68l-.65-.11-42.08,75.67C168.28,267.71,176.64,278.74,177.21,295.74Zm63.93,10.2H159.6c-.07,16.84-.43,33.44-.38,50.09h81.92Zm-7.59-10c2.09,0,4.06.12,6,0,7.09-.5,11.77,4.55,11.56,11.58-.12,4.23,0,8.47,0,12.71a24.14,24.14,0,0,0,.31,2.81c.94.06,1.56.13,2.18.13,16.11,0,32.23,0,48.34,0,7,0,10.77-3.87,10.8-11,0-8.48,0-17,0-25.44,0-.94-.16-1.88-.25-2.87H235.85C234.08,287.7,233,291.43,233.55,296Zm-27.94-72.29a5.39,5.39,0,0,0-5.51-5.34,5.46,5.46,0,0,0-5.22,5.65,5,5,0,0,0,5.43,5.29A5.49,5.49,0,0,0,205.61,223.68Z"></path><path d="M157.61,134.74H110.8c-2.06,5.36-5.54,9.42-11.07,11.39a20.24,20.24,0,0,1-13.24.36c-8.67-2.78-13.92-11-13.12-20.31.77-8.85,7.43-15.56,16.81-16.9,9.56-1.36,16.87,3.81,21.53,15.34h68.07c0-2.4-.06-4.62,0-6.83.2-6.19,3.6-9.83,9.77-10,7.11-.2,14.25-.2,21.36,0,6.14.18,9.57,3.91,9.73,10,.06,2.21,0,4.43,0,6.81H289c1.48-5.66,4.36-10.34,9.67-13.11a19.76,19.76,0,0,1,13.07-2c9.06,1.7,15.41,8.75,15.87,17.81a18.65,18.65,0,0,1-13.57,19.22c-9.86,2.94-17.93-.95-24.09-11.76H244.26c5.76,4,11.75,7.44,17,11.83a107.42,107.42,0,0,1,14.94,15.14,103.44,103.44,0,0,1,11.16,17.65c3.13,6.16,5.23,12.85,8,19.81,1.92,0,4.27-.08,6.62,0,6.58.27,10.06,3.84,10.12,10.41,0,6.73.06,13.47,0,20.21-.06,6.47-3.74,10.13-10.29,10.2q-10.12.1-20.25,0c-6.73-.07-10.33-3.64-10.45-10.49-.12-6.48,0-13-.05-19.46s4-11,10.52-10.91A20.2,20.2,0,0,0,284,199c-5.4-25.7-29.87-54.14-62.72-61.6-.21,1-.43,2.08-.61,3.12-.84,4.71-4.16,7.95-8.92,8.06-7.62.18-15.25.2-22.87,0-4.86-.13-8.31-3.67-8.92-8.5l-.33-2.54c-28.33,5.43-56.34,31.56-63,61.5,1.62.11,3.21.18,4.78.35,4.84.52,8.28,3.58,8.46,8.43.29,8,.3,16,0,23.93-.21,4.94-3.95,8.18-9,8.29q-11.25.22-22.49,0a9,9,0,0,1-9.21-9.32q-.2-11,0-22.08c.09-5.29,3.55-8.86,8.86-9.26,2.59-.2,5.21,0,7.94,0C113.66,170.35,130.73,149.15,157.61,134.74Zm53.3,4.22v-21.2H189.74V139Zm91.14,70.35H280.74v21h21.31Zm-203.23,21h21.27v-21H98.82Zm3.11-102.24a9.51,9.51,0,0,0-9.66-9.34A9.41,9.41,0,0,0,83,128.41a9.29,9.29,0,0,0,9.69,9.21C98.32,137.49,102.05,133.64,101.93,128.06Zm215.55.69a9.34,9.34,0,0,0-8.86-10,9.46,9.46,0,1,0-1,18.89C313.41,137.84,317.24,134.39,317.48,128.75Z"></path><path d="M279.68,36a13.73,13.73,0,0,1,13.85-13.75,13.78,13.78,0,0,1-.08,27.55A13.68,13.68,0,0,1,279.68,36Zm13.68-3.88a4,4,0,0,0-3.88,4.11,3.9,3.9,0,0,0,4.12,3.84,4,4,0,0,0,3.73-3.9A4,4,0,0,0,293.36,32.12Z"></path><path d="M260,49.8A13.78,13.78,0,1,1,273.8,36,13.72,13.72,0,0,1,260,49.8Zm4-13.52a4,4,0,0,0-3.87-4.16,4.08,4.08,0,0,0-4.06,4,4,4,0,0,0,7.93.16Z"></path><path d="M340.48,36.15a13.81,13.81,0,1,1-13.79-13.91A13.87,13.87,0,0,1,340.48,36.15Zm-13.81,3.93a4.16,4.16,0,0,0,4-4.07,4,4,0,0,0-8,0A4.11,4.11,0,0,0,326.67,40.08Z"></path></g></g></svg> 