<?xml version="1.0" encoding="UTF-8"?> <svg xmlns="http://www.w3.org/2000/svg" viewBox="0 0 376.21 383.25"><g id="Layer_2" data-name="Layer 2"><g id="Layer_1-2" data-name="Layer 1"><path d="M325.44,0c10,2.66,15,9.43,17.75,19.17,10.49,37.15,21.43,74.18,32.19,111.26,2.39,8.25-.34,13.07-8.71,15.5l-37.45,10.83c2.7,4.83,5.52,9.35,7.83,14.13a29,29,0,0,1-13.21,38.55c-17.48,8.87-42-2-42.48-26.46-.08-3.85,0-7.69,0-12.23-2,.51-3.22.81-4.47,1.17l-33.44,9.65c-8.56,2.46-13.21-.12-15.75-8.77q-5.37-18.28-10.67-36.59c-2.46-8.53,1.55-14.36,10.36-15,4.48-.33,9-.41,13.48-.66,7.95-.43,13.89-4.82,16.4-12.07a18.13,18.13,0,0,0-5.2-19.42c-6-5.15-13.31-5.94-20.57-2.06-4.29,2.3-8.36,5-12.72,7.15-7.4,3.67-13.68.83-16-7.12-3.49-11.82-6.88-23.68-10.28-35.53-2.53-8.85,1-15.21,9.9-17.77L316.69.69A6.38,6.38,0,0,0,317.94,0Zm39.34,134.76c-.36-1.41-.54-2.26-.78-3.09q-16.22-55.8-32.42-111.58c-2.28-7.85-6.53-10.18-14.38-7.91-12.58,3.64-25.14,7.33-37.72,11q-36.5,10.56-73,21c-3.06.87-4.21,2.12-3,5.26.9,2.31,1.41,4.77,2.11,7.16,2.65,9.06,5.31,18.11,8.09,27.6,2.07-1.15,3.77-2.12,5.48-3,3.51-1.9,6.89-4.1,10.56-5.61,11.06-4.57,21.25-2.29,30,5.37,8.94,7.85,11.84,18.17,8.65,29.55-3.1,11-10.39,18.37-22,20.55-4.27.8-8.69.71-13.05,1.05-1.78.14-3.57.33-5.62.52L238.86,171c1.43-.36,2.61-.63,3.78-1,11.75-3.37,23.48-6.79,35.25-10.11,7.21-2,12.92,1.46,13.94,8.78.61,4.43.52,9,.76,13.43.27,4.8,1.09,9.4,4.57,13.11A18.16,18.16,0,0,0,321,198.06a17.64,17.64,0,0,0,5.52-23.2c-2.43-4.63-5.37-9-7.64-13.71-3.15-6.57-.16-12.92,6.81-15.08,3.58-1.11,7.2-2.06,10.79-3.1Z"></path><path d="M11.25,229.66H51.81c-1.19-4.72-2.43-9.23-3.46-13.79a29.25,29.25,0,1,1,57,.4c-1,4.36-2.22,8.66-3.42,13.31h40.52V206.75c0-5.86-.07-11.72,0-17.59.1-7.4,5.64-12.1,12.94-10.77,5,.92,9.94,2.41,14.93,3.49,8,1.72,14.29-1.1,18.84-7.68a17.74,17.74,0,0,0-.28-20.07c-4.73-6.58-11.27-8.82-19.1-7.19-4.39.92-8.69,2.29-13.08,3.21-8.63,1.81-14.25-2.75-14.26-11.48,0-11.85-.11-23.71.05-35.55.05-3.25-.92-4.35-4.24-4.32-15.5.14-31,.07-46.5.06-4.83,0-7.27-1.88-7.29-5.54s2.51-5.67,7.23-5.67q24,0,48,0c8.68,0,14,5.39,14,14.08,0,12.34,0,24.68,0,37.68,4-1,7.64-2,11.31-2.91,17.32-4.29,32.91,4.06,37.3,20,5.93,21.46-12.81,41-34.8,36.31-4.5-1-8.94-2.17-13.58-3.3-.09,1-.22,1.75-.22,2.48,0,12.45,0,24.91,0,37.87h4.21c11.88,0,23.75,0,35.62,0,8.78,0,13.32,5.58,11.52,14.21-.92,4.39-2.25,8.69-3.19,13.07-2,9.53,2.7,18.23,11.46,21.29a18.19,18.19,0,0,0,22.24-9.06c2.14-4.12,2.08-8.4,1.08-12.75s-2.31-8.67-3.17-13.07c-1.61-8.15,3-13.67,11.39-13.69q18.57-.06,37.13,0c8.74,0,14.14,5.3,14.17,13.89q.07,24.14,0,48.28c0,4.27-1.85,6.69-5.17,7-3.68.29-6.05-2.3-6.06-6.8q0-23,0-46c0-5.08,0-5.08-5.23-5.08H244.39c1.23,5,2.52,9.64,3.5,14.34a28.9,28.9,0,0,1-22.2,34.53c-15.18,3.49-31.19-5.89-34.58-21.16-1.17-5.24-.13-11.07.45-16.58.38-3.65,1.72-7.19,2.68-11H153.72v4.11c0,12,0,23.95,0,35.93,0,8.1-5.48,12.72-13.52,11.21-4.52-.85-8.94-2.29-13.43-3.33-10.63-2.45-20.82,4.1-22.47,14.39a17.9,17.9,0,0,0,16.41,20.92,27.82,27.82,0,0,0,7.74-1c4-.84,8-2.11,12-2.84,7.79-1.4,13.23,3.22,13.26,11.12,0,13.22,0,26.44,0,40.29H273.24c8.16,0,11.69-3.47,11.7-11.53q0-18.9,0-37.8c0-1-.05-2,0-3,.24-3.32,2.36-5.47,5.41-5.56a5.39,5.39,0,0,1,5.75,5.58c.08,14.85.33,29.7-.12,44.53-.31,10.36-9.3,18.52-19.7,19-1.25,0-2.5,0-3.75,0h-249C8.22,383.25,0,375,0,359.68V111.19c0-15.3,8.28-23.54,23.64-23.55q18.55,0,37.12,0c.75,0,1.5,0,2.25,0,3.95.18,6.47,2.52,6.32,5.88s-2.5,5.3-6.41,5.32c-12.87,0-25.75,0-38.62,0-9.92,0-13,3.09-13,12.89V229.66Zm0,11.4V360c0,8.59,3.41,12,12,12H142.31V331.56c-4.69,1.19-9.11,2.42-13.58,3.44a29.21,29.21,0,1,1-.15-56.92c4.54,1,9,2.26,13.57,3.4V241.06c-13.44,0-26.55,0-39.67,0-8.53,0-13.07-5.54-11.35-14,.9-4.38,2.25-8.68,3.22-13.05,1.79-8-1.14-15.38-7.6-19.59a18.12,18.12,0,0,0-20.11.26c-6.37,4.42-9.06,11.85-7.11,19.79,1,4,2.16,7.94,3,11.95,1.95,9.16-2.47,14.6-11.73,14.61C37.82,241.07,24.84,241.06,11.25,241.06Z"></path></g></g></svg> 