<svg xmlns="http://www.w3.org/2000/svg" viewBox="0 0 26.06 26.06"><defs><style>.cls-1{fill:#fff;}.cls-2{fill:#f7963a;}.cls-3{fill:#121840;}.cls-4{fill:#e82829;}.cls-5{fill:#363c91;}.cls-6{fill:#5fb246;}.cls-7{fill:#f3ea21;}.cls-8{fill:#5f266c;}.cls-9{fill:#ee3e24;}.cls-10{fill:#009fc9;}</style></defs><g id="Layer_2" data-name="Layer 2"><g id="Layer_1-2" data-name="Layer 1"><circle class="cls-1" cx="13.02" cy="13.07" r="12.65"></circle><path class="cls-2" d="M13,.74A12.29,12.29,0,1,1,.74,13,12.3,12.3,0,0,1,13,.74M13,0a13,13,0,1,0,13,13A13,13,0,0,0,13,0Z"></path><path class="cls-3" d="M18.44,19.57a1.15,1.15,0,0,1,.83.32.06.06,0,0,1,0,.1l-.21.22a.06.06,0,0,1-.09,0,.81.81,0,0,0-.53-.2.8.8,0,0,0,0,1.6.83.83,0,0,0,.53-.2.07.07,0,0,1,.09,0l.21.23s0,.06,0,.09a1.2,1.2,0,0,1-.84.34,1.25,1.25,0,0,1,0-2.5Z"></path><path class="cls-3" d="M14.09,19.69a.07.07,0,0,1,.06-.07h1.41a.08.08,0,0,1,.07.07V20a.07.07,0,0,1-.07.07h-1v.57h.85a.07.07,0,0,1,.07.06V21a.07.07,0,0,1-.07.07h-.85v.6h1a.07.07,0,0,1,.07.07V22a.07.07,0,0,1-.07.07H14.15s-.06,0-.06-.07Z"></path><path class="cls-3" d="M10.42,19.67a.06.06,0,0,1,.06-.06h.82a1.21,1.21,0,1,1,0,2.42h-.82a.07.07,0,0,1-.06-.07Zm.84,1.94a.79.79,0,0,0,0-1.58h-.39v1.58Z"></path><path class="cls-3" d="M6.76,19.63a.06.06,0,0,1,.06-.06h.09L8.35,21.1h0V19.67a.07.07,0,0,1,.07-.06h.32a.06.06,0,0,1,.06.06V22a.07.07,0,0,1-.06.07H8.66L7.21,20.48h0V22a.07.07,0,0,1-.07.07H6.82A.07.07,0,0,1,6.76,22Z"></path><polygon class="cls-4" points="6.55 17.47 12.52 11.12 12.91 11.58 6.94 17.93 6.55 17.47"></polygon><polygon class="cls-5" points="19.3 18.46 19.73 17.96 6.99 4.42 6.57 4.92 19.3 18.46"></polygon><rect class="cls-6" x="6.65" y="17.7" width="9.11" height="0.71"></rect><rect class="cls-7" x="6.7" y="4.07" width="8.98" height="0.71"></rect><rect class="cls-8" x="19.3" y="4.01" width="0.6" height="14.45"></rect><rect class="cls-9" x="6.75" y="10.9" width="6.16" height="0.71"></rect><rect class="cls-10" x="6.16" y="4.07" width="0.6" height="14.33"></rect></g></g></svg>