<svg xmlns="http://www.w3.org/2000/svg" viewBox="0 0 189.89 74"><defs><style>.cls-1{fill:#ff8200;}.cls-2{fill:#fff;}</style></defs><g id="Layer_2" data-name="Layer 2"><g id="Layer_1-2" data-name="Layer 1"><rect class="cls-1" width="189.89" height="74" rx="35.6"></rect><path class="cls-2" d="M77,50.05V23.69h4.9V50.05Z"></path><path class="cls-2" d="M88.52,50.05V29.94H93V35.4l-.79-1.7a7,7,0,0,1,3-3,10,10,0,0,1,4.65-1.06,9.44,9.44,0,0,1,4.32.95,7,7,0,0,1,3,2.9,10,10,0,0,1,1.11,5V50.05h-4.71V39.13a5.63,5.63,0,0,0-1.24-4,4.63,4.63,0,0,0-3.54-1.32,6.13,6.13,0,0,0-2.94.68,4.61,4.61,0,0,0-2,2,7.19,7.19,0,0,0-.7,3.37V50.05Z"></path><path class="cls-2" d="M111.61,33.7V29.94H125V33.7Zm10.24,16.61a7.15,7.15,0,0,1-5.12-1.71,6.59,6.59,0,0,1-1.81-5V25.49h4.67V43.42a3.09,3.09,0,0,0,.75,2.22,2.78,2.78,0,0,0,2.11.79A3.86,3.86,0,0,0,125,45.6L126.37,49a5.88,5.88,0,0,1-2.07,1A8.89,8.89,0,0,1,121.85,50.31Z"></path><path class="cls-2" d="M130.29,50.05V29.94h4.48v5.53l-.53-1.62a6.26,6.26,0,0,1,2.82-3.1,9.8,9.8,0,0,1,4.79-1.08v4.49l-.53-.06-.49,0a5.9,5.9,0,0,0-4.29,1.54A6.3,6.3,0,0,0,135,40.33v9.72Z"></path><path class="cls-2" d="M154.54,50.31A11.17,11.17,0,0,1,149.06,49a9.94,9.94,0,0,1-3.82-3.68,10.83,10.83,0,0,1,0-10.65A9.93,9.93,0,0,1,149,31a11.17,11.17,0,0,1,5.5-1.34A11.34,11.34,0,0,1,160.09,31a9.88,9.88,0,0,1,3.81,3.64A10.25,10.25,0,0,1,165.27,40a10.29,10.29,0,0,1-1.37,5.33A9.92,9.92,0,0,1,160.07,49,11.34,11.34,0,0,1,154.54,50.31Zm0-4a6.21,6.21,0,0,0,3.09-.77,5.47,5.47,0,0,0,2.12-2.22,7,7,0,0,0,.77-3.34,6.77,6.77,0,0,0-.77-3.33,5.43,5.43,0,0,0-2.12-2.18,6.37,6.37,0,0,0-6.11,0,5.61,5.61,0,0,0-2.14,2.18,6.67,6.67,0,0,0-.79,3.33,6.84,6.84,0,0,0,.79,3.34,5.65,5.65,0,0,0,2.14,2.22A6.06,6.06,0,0,0,154.54,46.32Z"></path><circle class="cls-2" cx="40.33" cy="37" r="19.19"></circle><path class="cls-1" d="M52.24,35.92,34.59,25.74a1.36,1.36,0,0,0-2,1.18V47.3a1.36,1.36,0,0,0,2,1.18L52.24,38.29A1.37,1.37,0,0,0,52.24,35.92Z"></path></g></g></svg>