<svg xmlns="http://www.w3.org/2000/svg" viewBox="0 0 360.89 203"><defs><style>.cls-1{fill:#fbf6e5;opacity:0;}.cls-2{fill:#ff8200;}.cls-3{fill:#fff;}</style></defs><g id="Layer_2" data-name="Layer 2"><g id="Layer_1-2" data-name="Layer 1"><rect class="cls-1" width="360.89" height="203"></rect><rect class="cls-2" x="4.94" y="33.11" width="351" height="136.78" rx="65.8"></rect><path class="cls-3" d="M147.2,125.62V76.89h9.05v48.73Z"></path><path class="cls-3" d="M168.57,125.62V88.45h8.28V98.54l-1.46-3.13a12.94,12.94,0,0,1,5.6-5.5,18.3,18.3,0,0,1,8.6-2,17.45,17.45,0,0,1,8,1.74,13,13,0,0,1,5.5,5.36,18.59,18.59,0,0,1,2.05,9.26v21.3h-8.7V105.43c0-3.29-.76-5.75-2.3-7.38a8.56,8.56,0,0,0-6.54-2.43,11.39,11.39,0,0,0-5.43,1.25,8.6,8.6,0,0,0-3.65,3.73,13.34,13.34,0,0,0-1.29,6.22v18.8Z"></path><path class="cls-3" d="M211.24,95.41v-7H236v7Zm18.93,30.7q-6.12,0-9.46-3.17t-3.35-9.29V80.23H226v33.14a5.73,5.73,0,0,0,1.4,4.11,5.14,5.14,0,0,0,3.9,1.46,7.24,7.24,0,0,0,4.73-1.53l2.5,6.19a10.84,10.84,0,0,1-3.82,1.88A16.62,16.62,0,0,1,230.17,126.11Z"></path><path class="cls-3" d="M245.76,125.62V88.45h8.29V98.68l-1-3A11.53,11.53,0,0,1,258.29,90a18.11,18.11,0,0,1,8.84-2v8.28l-1-.1-.91,0A10.87,10.87,0,0,0,257.32,99q-2.92,2.85-2.93,8.7v18Z"></path><path class="cls-3" d="M290.59,126.11a20.73,20.73,0,0,1-10.13-2.47,18.43,18.43,0,0,1-7.06-6.79,18.91,18.91,0,0,1,7-26.42A20.57,20.57,0,0,1,290.59,88a20.92,20.92,0,0,1,10.27,2.47,18.4,18.4,0,0,1,7,6.72,20.43,20.43,0,0,1,0,19.73,18.18,18.18,0,0,1-7.07,6.76A21,21,0,0,1,290.59,126.11Zm0-7.38a11.34,11.34,0,0,0,5.71-1.43,10,10,0,0,0,3.93-4.11,12.88,12.88,0,0,0,1.43-6.16,12.68,12.68,0,0,0-1.43-6.16,10.1,10.1,0,0,0-3.93-4,11.84,11.84,0,0,0-11.28,0,10.3,10.3,0,0,0-4,4,12.37,12.37,0,0,0-1.47,6.16,12.56,12.56,0,0,0,1.47,6.16,10.19,10.19,0,0,0,4,4.11A11.08,11.08,0,0,0,290.59,118.73Z"></path><circle class="cls-3" cx="79.49" cy="101.5" r="35.46"></circle><path class="cls-2" d="M101.51,99.51,68.89,80.68a2.53,2.53,0,0,0-3.79,2.18v37.67a2.53,2.53,0,0,0,3.79,2.19l32.62-18.84A2.52,2.52,0,0,0,101.51,99.51Z"></path></g></g></svg>